<svg aria-hidden="true" style="position: absolute; width: 0; height: 0; overflow: hidden;" version="1.1" xmlns="http://www.w3.org/2000/svg" xmlns:xlink="http://www.w3.org/1999/xlink">
<defs>
<symbol id="icon-google" viewBox="0 0 57 32">
<path fill="#ffc107" style="fill: var(--color1, #ffc107)" d="M36.749 14.671h-0.652v-0.033h-7.29v3.24h4.58c-0.346 0.984-1 1.83-1.863 2.414s-1.893 0.875-2.934 0.83c-1.042-0.045-2.042-0.423-2.852-1.080s-1.388-1.556-1.649-2.565c-0.26-1.010-0.19-2.076 0.202-3.043s1.084-1.781 1.974-2.325c0.89-0.543 1.931-0.786 2.97-0.693s2.020 0.518 2.799 1.211l2.289-2.291c-1.412-1.31-3.244-2.072-5.168-2.15s-3.813 0.533-5.326 1.724c-1.513 1.191-2.551 2.883-2.928 4.771s-0.066 3.849 0.875 5.529 2.451 2.969 4.258 3.634c1.807 0.666 3.792 0.664 5.598-0.004s3.314-1.959 4.252-3.641c0.938-1.681 1.246-3.643 0.867-5.53z"></path>
<path fill="#ff3d00" style="fill: var(--color2, #ff3d00)" d="M21.636 12.486l2.663 1.953c0.29-0.723 0.75-1.365 1.341-1.872s1.295-0.865 2.053-1.043 1.548-0.17 2.302 0.022c0.755 0.192 1.452 0.563 2.033 1.081l2.291-2.291c-0.909-0.851-2.003-1.48-3.195-1.838s-2.451-0.437-3.679-0.229-2.39 0.697-3.398 1.428c-1.008 0.731-1.833 1.686-2.411 2.788z"></path>
<path fill="#4caf50" style="fill: var(--color3, #4caf50)" d="M28.806 24.358c2.009 0.001 3.946-0.748 5.432-2.101l-2.51-2.121c-0.607 0.46-1.314 0.77-2.063 0.906s-1.52 0.093-2.25-0.124c-0.73-0.218-1.398-0.604-1.951-1.128s-0.974-1.171-1.23-1.888l-2.637 2.034c0.677 1.33 1.709 2.447 2.981 3.227s2.735 1.194 4.227 1.195z"></path>
<path fill="#1976d2" style="fill: var(--color4, #1976d2)" d="M36.749 14.67h-0.652v-0.033h-7.29v3.24h4.58c-0.32 0.899-0.896 1.684-1.656 2.259l2.51 2.121c0.852-0.748 1.532-1.671 1.992-2.706s0.692-2.158 0.677-3.292c-0.001-0.534-0.055-1.066-0.161-1.589z"></path>
</symbol>
<symbol id="icon-logout" viewBox="0 0 32 32">
<path fill="none" stroke="#e63535" style="stroke: var(--color1, #e63535)" stroke-linejoin="round" stroke-linecap="round" stroke-miterlimit="4" stroke-width="2.56" d="M20.49 22.196l6.4-6.4-6.4-6.4"></path>
<path fill="none" stroke="#e63535" style="stroke: var(--color1, #e63535)" stroke-linejoin="round" stroke-linecap="round" stroke-miterlimit="4" stroke-width="2.56" d="M26.89 15.796h-15.36"></path>
<path fill="none" stroke="#e63535" style="stroke: var(--color1, #e63535)" stroke-linejoin="round" stroke-linecap="round" stroke-miterlimit="4" stroke-width="2.56" d="M11.53 27.316h-5.12c-0.679 0-1.33-0.27-1.81-0.75s-0.75-1.131-0.75-1.81v-17.92c0-0.679 0.27-1.33 0.75-1.81s1.131-0.75 1.81-0.75h5.12"></path>
</symbol>
<symbol id="icon-info" viewBox="0 0 32 32">
<path stroke="black"  fill="black" d="M15.37 2.996c-2.532 0-5.006 0.751-7.111 2.157s-3.746 3.406-4.714 5.744c-0.969 2.339-1.222 4.912-0.728 7.395s1.713 4.764 3.503 6.554c1.79 1.79 4.071 3.009 6.554 3.503s5.057 0.24 7.396-0.728c2.339-0.969 4.338-2.609 5.744-4.714s2.157-4.58 2.157-7.111c0-1.681-0.331-3.345-0.974-4.898s-1.586-2.964-2.775-4.153-2.6-2.131-4.153-2.775c-1.553-0.643-3.218-0.974-4.898-0.974zM15.37 26.036c-2.025 0-4.005-0.601-5.689-1.726s-2.996-2.724-3.771-4.596-0.978-3.93-0.583-5.916c0.395-1.986 1.37-3.811 2.802-5.243s3.257-2.407 5.243-2.802c1.986-0.395 4.045-0.192 5.916 0.583s3.47 2.088 4.596 3.771c1.125 1.684 1.726 3.664 1.726 5.689 0 2.716-1.079 5.32-2.999 7.241s-4.525 2.999-7.241 2.999z"></path>
<path stroke="black"  fill="black" d="M15.37 11.956c0.707 0 1.28-0.573 1.28-1.28s-0.573-1.28-1.28-1.28c-0.707 0-1.28 0.573-1.28 1.28s0.573 1.28 1.28 1.28z"></path>
<path stroke="black"  fill="black" d="M15.37 13.236c-0.339 0-0.665 0.135-0.905 0.375s-0.375 0.566-0.375 0.905v6.4c0 0.339 0.135 0.665 0.375 0.905s0.566 0.375 0.905 0.375 0.665-0.135 0.905-0.375c0.24-0.24 0.375-0.566 0.375-0.905v-6.4c0-0.339-0.135-0.665-0.375-0.905s-0.566-0.375-0.905-0.375z"></path>
</symbol>
<symbol id="icon-partner" viewBox="0 0 32 32">
<path stroke-linejoin="round" stroke-linecap="round" stroke-miterlimit="4" stroke-width="2.56" d="M25.61 9.396h-20.48c-1.414 0-2.56 1.146-2.56 2.56v12.8c0 1.414 1.146 2.56 2.56 2.56h20.48c1.414 0 2.56-1.146 2.56-2.56v-12.8c0-1.414-1.146-2.56-2.56-2.56z"></path>
<path stroke-linejoin="round" stroke-linecap="round" stroke-miterlimit="4" stroke-width="2.56" d="M20.49 27.316v-20.48c0-0.679-0.27-1.33-0.75-1.81s-1.131-0.75-1.81-0.75h-5.12c-0.679 0-1.33 0.27-1.81 0.75s-0.75 1.131-0.75 1.81v20.48"></path>
</symbol>
<symbol id="icon-bell" viewBox="0 0 32 32">
<path stroke-linejoin="round" stroke-linecap="round" stroke-miterlimit="4" stroke-width="2.56" d="M17.584 27.316c-0.225 0.388-0.548 0.71-0.937 0.934s-0.829 0.342-1.278 0.342c-0.448 0-0.889-0.118-1.278-0.342s-0.712-0.546-0.937-0.934"></path>
<path stroke-linejoin="round" stroke-linecap="round" stroke-miterlimit="4" stroke-width="2.56" d="M23.050 10.676c0-2.037-0.809-3.99-2.249-5.431s-3.394-2.249-5.431-2.249-3.99 0.809-5.431 2.249c-1.44 1.44-2.249 3.394-2.249 5.431 0 8.96-3.84 11.52-3.84 11.52h23.040c0 0-3.84-2.56-3.84-11.52z"></path>
</symbol>
<symbol id="icon-address" viewBox="0 0 32 32">
<path stroke="black"  fill="black" d="M25.254 2.996h-15.644c-2.352 0-4.267 1.914-4.267 4.267v1.422h-1.422c-0.786 0-1.422 0.637-1.422 1.422s0.636 1.422 1.422 1.422h1.422v2.844h-1.422c-0.786 0-1.422 0.637-1.422 1.422s0.636 1.422 1.422 1.422h1.422v2.845h-1.422c-0.786 0-1.422 0.637-1.422 1.422s0.636 1.422 1.422 1.422h1.422v1.422c0 2.352 1.914 4.267 4.267 4.267h15.644c2.352 0 4.267-1.914 4.267-4.267v-17.067c0-2.352-1.914-4.267-4.267-4.267zM8.188 7.262c0-0.784 0.639-1.422 1.422-1.422v2.844h-1.422v-1.422zM8.188 11.529h1.422v2.844h-1.422v-2.844zM8.188 17.218h1.422v2.845h-1.422v-2.845zM8.188 24.329v-1.422h1.422v2.844c-0.784 0-1.422-0.639-1.422-1.422zM26.677 24.329c0 0.784-0.639 1.422-1.422 1.422h-14.222v-19.911h14.222c0.784 0 1.422 0.639 1.422 1.422v17.067z"></path>
<path fill="none" stroke="#1c1c28" style="stroke: var(--color2, #1c1c28)" stroke-linejoin="round" stroke-linecap="round" stroke-miterlimit="4" stroke-width="1.28" d="M14.090 14.515l3.84-2.987 3.84 2.987v4.693c0 0.226-0.090 0.443-0.25 0.603s-0.377 0.25-0.604 0.25h-5.973c-0.226 0-0.443-0.090-0.603-0.25s-0.25-0.377-0.25-0.603v-4.693z"></path>
<path fill="none" stroke="#1c1c28" style="stroke: var(--color2, #1c1c28)" stroke-linejoin="round" stroke-linecap="round" stroke-miterlimit="4" stroke-width="1.28" d="M16.65 20.062v-4.267h2.56v4.267"></path>
</symbol>
<symbol id="icon-card" viewBox="0 0 32 32">
<path stroke-linejoin="round" stroke-linecap="round" stroke-miterlimit="4" stroke-width="2.56" d="M26.89 5.556h-23.040c-1.414 0-2.56 1.146-2.56 2.56v15.36c0 1.414 1.146 2.56 2.56 2.56h23.040c1.414 0 2.56-1.146 2.56-2.56v-15.36c0-1.414-1.146-2.56-2.56-2.56z"></path>
<path stroke-linejoin="round" stroke-linecap="round" stroke-miterlimit="4" stroke-width="2.56" d="M1.29 13.236h28.16"></path>
</symbol>
<symbol id="icon-heart" viewBox="0 0 32 32">
<path  stroke="black"  fill="black" d="M15.37 27.316c-0.168 0.001-0.335-0.031-0.491-0.095s-0.298-0.158-0.417-0.276l-9.946-9.958c-1.248-1.261-1.947-2.962-1.947-4.736s0.7-3.475 1.947-4.736c1.257-1.254 2.96-1.958 4.736-1.958s3.479 0.704 4.736 1.958l1.382 1.382 1.382-1.382c1.257-1.254 2.96-1.958 4.736-1.958s3.479 0.704 4.736 1.958c1.247 1.261 1.947 2.962 1.947 4.736s-0.7 3.475-1.947 4.736l-9.946 9.958c-0.12 0.119-0.261 0.213-0.417 0.276s-0.323 0.096-0.491 0.095zM9.252 8.116c-0.542-0.002-1.079 0.103-1.58 0.309s-0.956 0.51-1.339 0.894c-0.773 0.777-1.207 1.829-1.207 2.925s0.434 2.148 1.207 2.925l9.037 9.050 9.037-9.050c0.773-0.777 1.207-1.829 1.207-2.925s-0.434-2.148-1.207-2.925c-0.789-0.745-1.833-1.161-2.918-1.161s-2.13 0.415-2.918 1.161l-2.291 2.304c-0.119 0.12-0.261 0.215-0.416 0.28s-0.323 0.098-0.492 0.098-0.336-0.033-0.492-0.098c-0.156-0.065-0.297-0.16-0.416-0.28l-2.291-2.304c-0.383-0.384-0.838-0.688-1.339-0.894s-1.038-0.312-1.58-0.309z"></path>
</symbol>
<symbol id="icon-close" viewBox="0 0 31 32">
<path d="M17.165 15.796l5.504-5.491c0.241-0.241 0.376-0.568 0.376-0.909s-0.135-0.668-0.376-0.909c-0.241-0.241-0.568-0.376-0.909-0.376s-0.668 0.135-0.909 0.376l-5.491 5.504-5.491-5.504c-0.241-0.241-0.568-0.376-0.909-0.376s-0.668 0.135-0.909 0.376c-0.241 0.241-0.376 0.568-0.376 0.909s0.135 0.668 0.376 0.909l5.504 5.491-5.504 5.491c-0.12 0.119-0.215 0.261-0.28 0.416s-0.098 0.323-0.098 0.492 0.033 0.336 0.098 0.492c0.065 0.156 0.16 0.298 0.28 0.416 0.119 0.12 0.261 0.215 0.417 0.28s0.323 0.098 0.492 0.098c0.169 0 0.336-0.033 0.492-0.098s0.298-0.16 0.417-0.28l5.491-5.504 5.491 5.504c0.119 0.12 0.261 0.215 0.417 0.28s0.323 0.098 0.492 0.098c0.169 0 0.336-0.033 0.492-0.098s0.298-0.16 0.416-0.28c0.12-0.119 0.215-0.26 0.28-0.416s0.098-0.323 0.098-0.492-0.033-0.336-0.098-0.492c-0.065-0.156-0.16-0.297-0.28-0.416l-5.504-5.491z"></path>
</symbol>
<symbol id="icon-location" viewBox="0 0 30 32">
<path d="M14.857 32c2.328 0 4.409-0.176 6.245-0.528s3.394-0.832 4.675-1.44c1.281-0.608 2.257-1.307 2.929-2.096s1.008-1.626 1.008-2.51c0-0.76-0.217-1.466-0.65-2.118s-1.023-1.238-1.768-1.761c-0.745-0.523-1.585-0.972-2.52-1.348s-1.909-0.673-2.922-0.891-2.001-0.342-2.966-0.371v2.538c0.818 0.038 1.663 0.154 2.535 0.349s1.683 0.454 2.432 0.777c0.75 0.323 1.359 0.701 1.826 1.134s0.701 0.906 0.701 1.419c0 0.618-0.287 1.179-0.862 1.683s-1.376 0.941-2.403 1.312c-1.027 0.371-2.245 0.659-3.652 0.863s-2.944 0.306-4.609 0.306c-1.665 0-3.202-0.102-4.609-0.306s-2.627-0.49-3.659-0.856c-1.032-0.366-1.831-0.803-2.396-1.312s-0.847-1.072-0.847-1.69c0-0.513 0.231-0.986 0.694-1.419s1.069-0.811 1.819-1.134c0.75-0.323 1.563-0.582 2.44-0.777s1.719-0.311 2.527-0.349v-2.538c-0.954 0.029-1.938 0.152-2.951 0.371s-1.987 0.516-2.922 0.891c-0.935 0.376-1.775 0.825-2.52 1.348s-1.337 1.11-1.775 1.761c-0.438 0.651-0.657 1.357-0.657 2.118 0 0.884 0.338 1.721 1.015 2.51s1.656 1.488 2.936 2.096c1.281 0.608 2.839 1.088 4.675 1.44s3.913 0.528 6.231 0.528v0zM14.872 26.382c0.156 0 0.324-0.145 0.504-0.435s0.348-0.706 0.504-1.248 0.282-1.195 0.38-1.961c0.097-0.765 0.146-1.628 0.146-2.588v-9.54h-3.082v9.54c0 0.96 0.049 1.823 0.146 2.588s0.226 1.419 0.387 1.961c0.161 0.542 0.331 0.958 0.511 1.248s0.348 0.435 0.504 0.435v0zM14.872 11.366c1.071 0 2.045-0.257 2.922-0.77s1.575-1.2 2.096-2.061c0.521-0.86 0.782-1.809 0.782-2.845 0-1.046-0.261-1.999-0.782-2.859s-1.22-1.547-2.096-2.061c-0.877-0.513-1.85-0.77-2.922-0.77-1.081 0-2.057 0.257-2.929 0.77s-1.568 1.2-2.089 2.061c-0.521 0.86-0.782 1.813-0.782 2.859 0 1.036 0.261 1.985 0.782 2.845s1.217 1.547 2.089 2.061c0.872 0.513 1.848 0.77 2.929 0.77zM13.221 6.004c-0.526 0-0.989-0.195-1.388-0.585s-0.599-0.846-0.599-1.369c0-0.523 0.2-0.974 0.599-1.355s0.862-0.57 1.388-0.57c0.545 0 1.013 0.19 1.402 0.57s0.584 0.832 0.584 1.355c0 0.523-0.195 0.979-0.584 1.369s-0.857 0.585-1.402 0.585z"></path>
</symbol>
<symbol id="icon-arrow-down" viewBox="0 0 32 32">
<path d="M16 21.333c-0.312 0.001-0.613-0.108-0.853-0.307l-8-6.667c-0.272-0.226-0.444-0.552-0.476-0.904s0.076-0.704 0.303-0.976c0.226-0.272 0.552-0.444 0.904-0.476s0.704 0.076 0.976 0.303l7.147 5.973 7.147-5.76c0.136-0.111 0.293-0.193 0.462-0.243s0.345-0.066 0.52-0.047c0.175 0.019 0.344 0.072 0.498 0.156s0.29 0.198 0.4 0.335c0.122 0.137 0.214 0.298 0.272 0.472s0.077 0.359 0.060 0.542c-0.017 0.183-0.073 0.36-0.162 0.52s-0.211 0.301-0.357 0.412l-8 6.44c-0.247 0.167-0.543 0.247-0.84 0.227z"></path>
</symbol>
<symbol id="icon-search-light" viewBox="0 0 30 32">
<path fill="none" stroke="#6440fe" style="stroke: var(--color1, #6440fe)" stroke-linejoin="round" stroke-linecap="round" stroke-miterlimit="4" stroke-width="2.5098" d="M13.804 24.784c5.545 0 10.039-4.495 10.039-10.039s-4.495-10.039-10.039-10.039c-5.545 0-10.039 4.495-10.039 10.039s4.495 10.039 10.039 10.039z"></path>
<path fill="none" stroke="#6440fe" style="stroke: var(--color1, #6440fe)" stroke-linejoin="round" stroke-linecap="round" stroke-miterlimit="4" stroke-width="2.5098" d="M26.353 27.294l-5.459-5.459"></path>
</symbol>
<symbol id="icon-discount" viewBox="0 0 29 32">
<path fill="#6440fe" style="fill: var(--color1, #6440fe)" d="M10.523 3.559c1.385-3.73 6.66-3.73 8.045 0 0.718 1.932 2.708 3.081 4.74 2.737 3.922-0.665 6.56 3.903 4.023 6.967-1.315 1.588-1.315 3.886 0 5.473 2.537 3.064-0.1 7.633-4.023 6.967-2.032-0.345-4.023 0.804-4.74 2.737-1.385 3.73-6.66 3.73-8.045 0-0.718-1.932-2.708-3.081-4.74-2.737-3.922 0.665-6.56-3.903-4.023-6.967 1.315-1.588 1.315-3.886 0-5.473-2.537-3.064 0.1-7.633 4.023-6.967 2.032 0.345 4.023-0.804 4.74-2.737z"></path>
<path fill="#fff" style="fill: var(--color2, #fff)" d="M12.121 15.394c0.42 0 0.83-0.124 1.178-0.358s0.621-0.564 0.781-0.952 0.203-0.814 0.121-1.226c-0.082-0.411-0.284-0.789-0.581-1.086s-0.675-0.499-1.086-0.581c-0.411-0.082-0.838-0.040-1.226 0.121s-0.719 0.432-0.952 0.781c-0.233 0.349-0.357 0.759-0.357 1.178 0 0.563 0.223 1.102 0.621 1.5s0.937 0.621 1.5 0.621zM12.121 12.364c0.18 0 0.356 0.053 0.505 0.153s0.266 0.242 0.335 0.408c0.069 0.166 0.087 0.349 0.052 0.525s-0.122 0.338-0.249 0.465c-0.127 0.127-0.289 0.214-0.465 0.249s-0.359 0.017-0.525-0.052c-0.166-0.069-0.308-0.185-0.408-0.335s-0.153-0.325-0.153-0.505c0-0.241 0.096-0.472 0.266-0.643s0.402-0.266 0.643-0.266z"></path>
<path fill="#fff" style="fill: var(--color2, #fff)" d="M16.97 17.212c-0.419 0-0.83 0.124-1.178 0.357s-0.621 0.564-0.781 0.952c-0.161 0.388-0.202 0.814-0.121 1.226s0.284 0.79 0.581 1.086c0.297 0.297 0.675 0.499 1.086 0.581s0.838 0.040 1.226-0.121c0.388-0.16 0.719-0.432 0.952-0.781s0.358-0.759 0.358-1.178c0-0.563-0.224-1.102-0.621-1.5s-0.937-0.621-1.5-0.621zM16.97 20.242c-0.18 0-0.355-0.053-0.505-0.153s-0.266-0.242-0.335-0.408c-0.069-0.166-0.087-0.349-0.052-0.525s0.122-0.338 0.249-0.465 0.289-0.214 0.465-0.249c0.176-0.035 0.359-0.017 0.525 0.052s0.308 0.185 0.408 0.335c0.1 0.15 0.153 0.325 0.153 0.505 0 0.241-0.096 0.472-0.266 0.643s-0.402 0.266-0.643 0.266z"></path>
<path fill="#fff" style="fill: var(--color2, #fff)" d="M19.236 11.309c-0.050-0.050-0.11-0.090-0.175-0.117s-0.136-0.041-0.207-0.041c-0.071 0-0.141 0.014-0.207 0.041s-0.125 0.067-0.175 0.117l-8.618 8.618c-0.1 0.102-0.156 0.239-0.158 0.382-0 0.107 0.031 0.211 0.091 0.3s0.144 0.158 0.242 0.199 0.207 0.052 0.312 0.031c0.105-0.021 0.201-0.072 0.276-0.148l8.618-8.618c0.050-0.050 0.090-0.11 0.117-0.175s0.041-0.136 0.041-0.207c0-0.071-0.014-0.141-0.041-0.207s-0.067-0.125-0.117-0.175z"></path>
</symbol>
<symbol id="icon-star" viewBox="0 0 32 32">
<path fill="#8f90a6" style="fill: var(--color1, #8f90a6)" d="M24.891 31.232c-0.256 0.001-0.509-0.059-0.738-0.177l-8.177-4.281-8.177 4.281c-0.266 0.14-0.565 0.202-0.864 0.18s-0.586-0.127-0.828-0.305c-0.242-0.177-0.43-0.419-0.542-0.697s-0.143-0.583-0.091-0.878l1.603-9.027-6.606-6.414c-0.206-0.206-0.352-0.464-0.423-0.746s-0.063-0.579 0.022-0.857c0.093-0.285 0.264-0.538 0.493-0.731s0.509-0.317 0.805-0.359l9.14-1.331 4.025-8.226c0.131-0.271 0.336-0.5 0.592-0.66s0.55-0.245 0.852-0.245c0.301 0 0.596 0.085 0.852 0.245s0.46 0.389 0.592 0.66l4.073 8.21 9.139 1.331c0.297 0.042 0.576 0.167 0.805 0.359s0.401 0.446 0.494 0.731c0.085 0.278 0.093 0.575 0.022 0.857s-0.217 0.54-0.423 0.746l-6.606 6.414 1.603 9.027c0.057 0.301 0.027 0.611-0.086 0.895s-0.306 0.53-0.555 0.708c-0.29 0.203-0.64 0.305-0.994 0.289zM15.976 23.375c0.257-0.006 0.511 0.054 0.738 0.176l6.045 3.207-1.154-6.75c-0.045-0.258-0.026-0.523 0.055-0.771s0.222-0.474 0.41-0.656l4.81-4.698-6.734-0.994c-0.247-0.050-0.479-0.157-0.677-0.313s-0.356-0.356-0.462-0.585l-3.030-6.013-3.030 6.013c-0.116 0.23-0.286 0.429-0.495 0.58s-0.452 0.249-0.707 0.286l-6.734 0.994 4.81 4.698c0.188 0.182 0.329 0.407 0.41 0.656s0.1 0.514 0.055 0.771l-1.154 6.67 6.045-3.207c0.256-0.095 0.534-0.117 0.802-0.064z"></path>
</symbol>
<symbol id="icon-arrow-right-v" viewBox="0 0 32 32">
<path fill="#6440fe" style="fill: var(--color1, #6440fe)" d="M21.333 16.002c0.001 0.312-0.108 0.613-0.307 0.853l-6.667 8c-0.226 0.272-0.552 0.444-0.904 0.476s-0.704-0.076-0.976-0.303c-0.272-0.226-0.444-0.552-0.476-0.904s0.076-0.704 0.303-0.976l5.973-7.147-5.76-7.147c-0.111-0.136-0.193-0.293-0.243-0.462s-0.066-0.345-0.047-0.52c0.019-0.175 0.072-0.344 0.156-0.498s0.198-0.29 0.335-0.4c0.137-0.122 0.298-0.215 0.472-0.272s0.359-0.077 0.542-0.060c0.183 0.018 0.36 0.073 0.52 0.162s0.301 0.211 0.412 0.356l6.44 8c0.167 0.247 0.247 0.543 0.227 0.84z"></path>
</symbol>
</defs>
</svg>
