<svg aria-hidden="true" style="position: absolute; width: 0; height: 0; overflow: hidden;" version="1.1" xmlns="http://www.w3.org/2000/svg" xmlns:xlink="http://www.w3.org/1999/xlink">
<defs>
<symbol id="icon-google" viewBox="0 0 57 32">
<path fill="#ffc107" style="fill: var(--color1, #ffc107)" d="M36.749 14.671h-0.652v-0.033h-7.29v3.24h4.58c-0.346 0.984-1 1.83-1.863 2.414s-1.893 0.875-2.934 0.83c-1.042-0.045-2.042-0.423-2.852-1.080s-1.388-1.556-1.649-2.565c-0.26-1.010-0.19-2.076 0.202-3.043s1.084-1.781 1.974-2.325c0.89-0.543 1.931-0.786 2.97-0.693s2.020 0.518 2.799 1.211l2.289-2.291c-1.412-1.31-3.244-2.072-5.168-2.15s-3.813 0.533-5.326 1.724c-1.513 1.191-2.551 2.883-2.928 4.771s-0.066 3.849 0.875 5.529 2.451 2.969 4.258 3.634c1.807 0.666 3.792 0.664 5.598-0.004s3.314-1.959 4.252-3.641c0.938-1.681 1.246-3.643 0.867-5.53z"></path>
<path fill="#ff3d00" style="fill: var(--color2, #ff3d00)" d="M21.636 12.486l2.663 1.953c0.29-0.723 0.75-1.365 1.341-1.872s1.295-0.865 2.053-1.043 1.548-0.17 2.302 0.022c0.755 0.192 1.452 0.563 2.033 1.081l2.291-2.291c-0.909-0.851-2.003-1.48-3.195-1.838s-2.451-0.437-3.679-0.229-2.39 0.697-3.398 1.428c-1.008 0.731-1.833 1.686-2.411 2.788z"></path>
<path fill="#4caf50" style="fill: var(--color3, #4caf50)" d="M28.806 24.358c2.009 0.001 3.946-0.748 5.432-2.101l-2.51-2.121c-0.607 0.46-1.314 0.77-2.063 0.906s-1.52 0.093-2.25-0.124c-0.73-0.218-1.398-0.604-1.951-1.128s-0.974-1.171-1.23-1.888l-2.637 2.034c0.677 1.33 1.709 2.447 2.981 3.227s2.735 1.194 4.227 1.195z"></path>
<path fill="#1976d2" style="fill: var(--color4, #1976d2)" d="M36.749 14.67h-0.652v-0.033h-7.29v3.24h4.58c-0.32 0.899-0.896 1.684-1.656 2.259l2.51 2.121c0.852-0.748 1.532-1.671 1.992-2.706s0.692-2.158 0.677-3.292c-0.001-0.534-0.055-1.066-0.161-1.589z"></path>
</symbol>
</defs>
</svg>
